# xmcd
#
# Track frame offsets:
#	150
#	19680
#	43260
#	66692
#	91357
#	111087
#	136125
#	154602
#	169897
#	184125
#
# Disc length: 2777 seconds
#
# Revision: 1
# Processed by: cddbd v1.5.2PL0 Copyright (c) Steve Scherf et al.
# Submitted via: EZCDAudioConverter 8.0.2.1
#
DISCID=880ad70a
DTITLE=Various Artist - Câu Chuyện Một Buổi Chiều
DYEAR=1994
DGENRE=blues
TTITLE0=Bạch Vân - Về dưới mái nhà
TTITLE1=Tiến Biên - Câu Chuyện Một Buổi Chiều
TTITLE2=Thiên Trang - Tình chỉ đẹp
TTITLE3=Tiến Biên - Nếu chúng mình cách trở
TTITLE4=Bạch Vân - Ngưu Lang Chức Nữ
TTITLE5=Hương Lan - Sầu vẫn dâng đầy
TTITLE6=Tiến Biên - Làng tôi
TTITLE7=Thiên Trang - Còn thương rau đắng mọc sau hè
TTITLE8=Bạch Vân - Em đi chùa Hương
TTITLE9=Tiến Biên - Nó
EXTD=
EXTT0=
EXTT1=
EXTT2=
EXTT3=
EXTT4=
EXTT5=
EXTT6=
EXTT7=
EXTT8=
EXTT9=
PLAYORDER=
